<?xml version="1.0" encoding="UTF-8" standalone="no"?>
<svg
   width="151.20778"
   height="226.66377"
   viewBox="0 0 151.20778 226.66377"
   fill="none"
   version="1.1"
   id="svg22"
   sodipodi:docname="cedar-logo-small.svg"
   inkscape:version="1.2.2 (b0a8486541, 2022-12-01)"
   xmlns:inkscape="http://www.inkscape.org/namespaces/inkscape"
   xmlns:sodipodi="http://sodipodi.sourceforge.net/DTD/sodipodi-0.dtd"
   xmlns="http://www.w3.org/2000/svg"
   xmlns:svg="http://www.w3.org/2000/svg">
  <defs
     id="defs26" />
  <sodipodi:namedview
     id="namedview24"
     pagecolor="#ffffff"
     bordercolor="#666666"
     borderopacity="1.0"
     inkscape:showpageshadow="2"
     inkscape:pageopacity="0.0"
     inkscape:pagecheckerboard="0"
     inkscape:deskcolor="#d1d1d1"
     showgrid="false"
     inkscape:zoom="2.5573123"
     inkscape:cx="221.71715"
     inkscape:cy="113.98686"
     inkscape:window-width="1920"
     inkscape:window-height="1027"
     inkscape:window-x="0"
     inkscape:window-y="0"
     inkscape:window-maximized="1"
     inkscape:current-layer="svg22" />
  <path
     d="m 53.535176,147.40178 c 0,-0.812 0.3288,-1.589 0.9113,-2.154 l 18.7319,-18.168 c 1.1638,-1.129 3.0137,-1.129 4.1774,0 l 18.7319,18.168 c 0.5826,0.565 0.9114,1.342 0.9114,2.154 v 76.262 c 0,1.657 -1.3432,3 -3,3 h -37.4639 c -1.6569,0 -3,-1.343 -3,-3 z"
     fill="#a65c19"
     id="path2" />
  <path
     d="m 72.363476,0.87868025 c 1.1716,-1.171573 3.0711,-1.171574 4.2427,-1e-6 l 18.2208,18.22079775 c 1.1716,1.1716 1.1716,3.0711 0,4.2427 l -71.4848,71.4848 c -1.1716,1.1716 -3.0711,1.1716 -4.2427,0 L 0.87867638,76.606177 c -1.171568,-1.1716 -1.171569,-3.0711 0,-4.2427 z"
     fill="#71a621"
     id="path4" />
  <path
     d="m 72.363476,62.656977 c 1.1716,-1.1715 3.0711,-1.1716 4.2427,0 l 18.2208,18.2208 c 1.1716,1.1716 1.1716,3.0711 0,4.2427 l -71.4848,71.485303 c -1.1716,1.171 -3.0711,1.171 -4.2427,0 l -18.22079962,-18.221 c -1.171568,-1.172 -1.171569,-3.071 0,-4.243 z"
     fill="#51732f"
     id="path6" />
  <path
     d="m 109.04678,31.232177 c -1.171,-1.1716 -3.071,-1.1716 -4.242,0 l -18.221304,18.2208 c -1.1715,1.1716 -1.1715,3.0711 0,4.2427 l 41.282304,41.282 c 1.171,1.1715 3.071,1.1715 4.242,0 l 18.221,-18.2209 c 1.172,-1.1715 1.172,-3.071 0,-4.2426 z"
     fill="#71a621"
     id="path8" />
  <path
     d="m 109.04678,92.860577 c -1.171,-1.1715 -3.071,-1.1715 -4.242,0 L 86.583476,111.08178 c -1.1715,1.171 -1.1715,3.071 0,4.242 l 41.282304,41.282 c 1.171,1.172 3.071,1.172 4.242,0 l 18.221,-18.221 c 1.172,-1.171 1.172,-3.071 0,-4.242 z"
     fill="#51732f"
     id="path10" />
</svg>
