<?xml version="1.0" encoding="UTF-8" standalone="no"?>
<!-- Created with Inkscape (http://www.inkscape.org/) -->

<svg
   width="537.47247mm"
   height="538.92725mm"
   viewBox="0 0 537.47247 538.92725"
   version="1.1"
   id="svg1714"
   xml:space="preserve"
   inkscape:version="1.2.2 (b0a8486541, 2022-12-01)"
   sodipodi:docname="Family-Practice-B.svg"
   inkscape:export-filename="Family-Practice-B.png"
   inkscape:export-xdpi="77.030922"
   inkscape:export-ydpi="77.030922"
   xmlns:inkscape="http://www.inkscape.org/namespaces/inkscape"
   xmlns:sodipodi="http://sodipodi.sourceforge.net/DTD/sodipodi-0.dtd"
   xmlns="http://www.w3.org/2000/svg"
   xmlns:svg="http://www.w3.org/2000/svg"><sodipodi:namedview
     id="namedview1716"
     pagecolor="#ffffff"
     bordercolor="#666666"
     borderopacity="1.0"
     inkscape:showpageshadow="2"
     inkscape:pageopacity="0.0"
     inkscape:pagecheckerboard="0"
     inkscape:deskcolor="#d1d1d1"
     inkscape:document-units="mm"
     showgrid="false"
     inkscape:zoom="0.26771948"
     inkscape:cx="295.08499"
     inkscape:cy="1100.032"
     inkscape:window-width="1920"
     inkscape:window-height="1027"
     inkscape:window-x="0"
     inkscape:window-y="0"
     inkscape:window-maximized="1"
     inkscape:current-layer="layer1" /><defs
     id="defs1711" /><g
     inkscape:label="Layer 1"
     inkscape:groupmode="layer"
     id="layer1"
     transform="translate(197.12524,171.27855)"><path
       style="fill:#000000;stroke-width:0.264583"
       d="m 134.73853,367.31795 c -0.0151,-0.1819 -0.0459,-42.19956 -0.0684,-93.37259 -0.039,-88.88256 -0.0619,-93.0652 -0.51279,-93.56344 -0.41859,-0.46254 -0.82261,-0.52149 -3.56965,-0.52093 -2.09092,0 -3.3986,0.12454 -4.02368,0.3819 -0.90646,0.37319 -2.40085,2.03797 -3.75382,4.18184 -0.36735,0.58208 -1.2491,1.9513 -1.95948,3.04271 -1.42137,2.18382 -1.48339,2.28222 -2.60837,4.13652 -0.42958,0.70811 -0.85524,1.34697 -0.94589,1.41973 -0.3208,0.25741 -2.30158,3.33121 -3.26593,5.06804 -0.53769,0.9684 -1.15232,1.90571 -1.36581,2.0829 -0.21352,0.1772 -0.3882,0.47628 -0.3882,0.66461 0,0.18833 -0.10125,0.38211 -0.22502,0.43064 -0.12378,0.0485 -0.53922,0.56443 -0.92324,1.14652 -0.38399,0.58208 -0.90046,1.35599 -1.14771,1.71979 -1.77355,2.60974 -5.027,7.49617 -5.24465,7.87707 -0.14552,0.25466 -1.30638,2.02059 -2.57969,3.92427 -1.2733,1.90368 -2.315103,3.59312 -2.315103,3.75431 0,0.16118 -0.161,0.38827 -0.35777,0.50463 -0.19677,0.11637 -0.89638,1.04503 -1.55469,2.06368 -0.65834,1.01864 -1.86569,2.88631 -2.68304,4.15038 -0.81732,1.26405 -1.60768,2.37347 -1.75635,2.46534 -0.14867,0.0919 -0.52359,0.665 -0.83315,1.27357 -0.30956,0.60859 -0.90318,1.52061 -1.31913,2.02671 -0.41595,0.50612 -0.75629,1.02184 -0.75629,1.14609 0,0.12428 -0.4019,0.72221 -0.8931,1.32879 -0.4912,0.60659 -1.0868,1.48447 -1.32355,1.95088 -0.38888,0.76605 -3.74483,4.53419 -5.05939,5.68079 -1.22415,1.06775 -4.14446,3.15844 -4.82325,3.45305 -0.40314,0.175 -1.18343,0.59423 -1.73394,0.93168 -1.08273,0.66365 -3.687,1.65616 -6.01052,2.29065 -0.80036,0.21855 -1.93145,0.56799 -2.51354,0.77648 -1.10357,0.39531 -2.11166,0.54303 -6.08541,0.89167 -1.30969,0.11491 -23.75297,0.20891 -49.87396,0.20891 -39.56655,0 -47.8018,-0.0616 -49.34479,-0.36912 -2.3743,-0.47318 -5.47178,-1.65089 -7.40726,-2.81638 -0.83622,-0.50355 -1.59849,-0.91554 -1.69395,-0.91554 -0.0955,0 -0.53218,-0.32742 -0.97049,-0.7276 -0.4383,-0.40018 -1.32804,-1.1426 -1.97719,-1.64984 -1.48084,-1.1571 -1.33233,-1.00425 -3.73122,-3.84027 -1.86748,-2.20776 -3.04173,-4.24217 -4.58153,-7.9375 -0.76778,-1.84258 -1.46137,-5.95312 -1.46399,-8.67626 -0.004,-3.72653 1.09582,-8.64603 2.46614,-11.03519 0.8118,-1.41539 1.50012,-2.85623 1.50012,-3.14018 0,-0.14042 0.0913,-0.29499 0.20297,-0.34351 0.11164,-0.0485 0.65726,-0.71287 1.21249,-1.47635 0.55524,-0.76348 1.14851,-1.47786 1.31838,-1.5875 0.16988,-0.10964 0.90248,-0.85418 1.62802,-1.65455 2.64527,-2.91808 5.35362,-4.62848 9.55874,-6.0366 3.146,-1.05346 4.15461,-1.3041 6.18773,-1.53773 1.93774,-0.22267 79.82514,-0.30869 81.90184,-0.0905 1.70292,0.17897 2.95509,-0.0777 3.44068,-0.70533 0.76413,-0.98758 3.41525,-5.02208 4.07308,-6.19844 0.37126,-0.66392 1.18801,-1.91408 1.81501,-2.77813 1.77937,-2.45215 6.69366,-9.94576 6.92993,-10.56716 0.11682,-0.30729 0.50279,-0.90916 0.85773,-1.33752 0.35491,-0.42837 1.09683,-1.49321 1.64867,-2.36633 0.55187,-0.87313 1.0968,-1.64799 1.211,-1.72194 0.11417,-0.0739 0.62494,-0.87278 1.13506,-1.77525 0.51009,-0.90246 1.06304,-1.79448 1.22878,-1.98225 0.16573,-0.18778 1.99128,-2.96077 4.05675,-6.16223 2.06544,-3.20146 4.20984,-6.47568 4.76528,-7.27604 1.19224,-1.71791 5.01089,-7.49977 6.09965,-9.23555 0.77076,-1.22875 1.43354,-2.24589 6.13666,-9.41758 1.43148,-2.18281 2.84602,-4.40102 3.14347,-4.92937 0.29741,-0.52832 1.13609,-1.86523 1.86369,-2.97087 0.72761,-1.10564 2.42319,-3.70946 3.76799,-5.78625 1.344803,-2.0768 2.773553,-4.25027 3.175003,-4.82992 0.40145,-0.57965 1.40184,-2.14119 2.22303,-3.47009 0.82121,-1.32889 2.19043,-3.35449 3.04271,-4.5013 0.8523,-1.14684 1.88378,-2.60639 2.29219,-3.24345 1.19956,-1.87116 9.29288,-10.10973 10.6096,-10.800028 0.42289,-0.221721 1.0182,-0.638122 1.32292,-0.925354 1.51323,-1.426395 7.61076,-5.211641 11.0051,-6.83175 4.17555,-1.992982 4.97015,-2.349638 6.21771,-2.79077 0.72761,-0.257278 1.563,-0.622607 1.85642,-0.811842 0.72115,-0.46509 2.64533,-1.136613 4.09671,-1.429723 1.87502,-0.378669 2.15357,-0.455536 3.81053,-1.051537 0.85883,-0.30893 2.58524,-0.677656 3.83645,-0.81939 1.25119,-0.141735 3.27621,-0.499383 4.50001,-0.794772 1.22383,-0.295391 2.77164,-0.586911 3.43958,-0.647824 3.12598,-0.285067 3.92817,-0.37415 4.8377,-0.537234 1.36152,-0.244123 2.66914,0.05349 3.07245,0.699289 0.2441,0.390855 0.33885,1.834099 0.33443,5.093173 -0.003,2.501273 0.16184,6.208091 0.36727,8.237381 0.20539,2.029275 0.36036,3.755681 0.34438,3.836458 -0.0159,0.08075 0.0469,0.92075 0.13978,1.866636 0.0929,0.945885 0.22712,3.267607 0.29834,5.159377 0.12605,3.34928 0.9538,9.52812 1.48704,11.10035 0.14578,0.42987 0.32851,1.38237 0.40603,2.11667 0.45474,4.3066 1.10725,7.99201 1.99311,11.25694 0.29612,1.0914 0.64849,2.57968 0.78306,3.30729 0.3389,1.83285 3.00582,9.05542 4.3475,11.77396 1.20885,2.44948 3.70252,6.84011 4.95884,8.73111 1.35872,2.04513 6.51439,6.88433 9.34059,8.76726 1.44936,0.9656 2.9256,1.84396 3.28051,1.95191 0.35494,0.10795 1.5988,0.65736 2.76413,1.22092 1.16536,0.56354 2.34085,1.02463 2.61226,1.02463 0.27138,0 1.58737,0.23188 2.92441,0.51527 1.33702,0.28343 3.11325,0.64863 3.94714,0.81156 2.73822,0.53509 2.45298,-5.45412 2.44969,51.43656 l -0.003,49.94971 -0.79086,0.64963 c -0.43498,0.35729 -1.26712,0.88066 -1.8492,1.16308 -1.6973,0.82349 -4.93779,3.98399 -6.56212,6.40019 -1.46513,2.1794 -2.86292,4.8931 -2.9514,5.72992 -0.0246,0.2322 -0.12642,0.83892 -0.2264,1.34824 -0.41042,2.09079 -0.45456,2.64816 -0.45027,5.68854 0.005,3.34066 0.25543,4.67238 1.40951,7.48575 1.06559,2.59763 4.4241,6.93658 6.9286,8.95128 2.24043,1.80229 6.34669,3.69274 9.26041,4.26336 1.80319,0.35314 7.13277,0.17312 8.73125,-0.2949 0.87313,-0.25564 1.94469,-0.56102 2.38125,-0.67861 0.9107,-0.24532 3.47451,-1.73042 5.02708,-2.91197 5.11525,-3.89279 8.31901,-9.23348 8.93414,-14.89319 0.27831,-2.56082 0.13814,-4.74771 -0.5596,-8.72974 -0.46328,-2.64398 -2.97516,-6.79593 -5.7115,-9.44062 -0.66429,-0.64204 -1.20783,-1.26712 -1.20783,-1.38906 0,-0.12192 -0.13163,-0.22167 -0.29252,-0.22167 -0.16089,0 -0.63802,-0.2907 -1.06027,-0.64598 -0.42222,-0.35531 -1.34805,-0.96187 -2.05737,-1.34792 -0.70932,-0.38606 -1.42229,-0.95856 -1.58438,-1.27225 -0.21277,-0.41177 -0.31342,-14.41474 -0.36205,-50.37055 -0.0672,-49.67669 -0.066,-49.8016 0.46775,-50.33558 0.37563,-0.37579 1.40073,-0.69792 3.43959,-1.08085 4.3448,-0.81605 7.16954,-1.56239 8.41052,-2.22223 0.61113,-0.32494 1.58681,-0.74174 2.16818,-0.92618 0.58134,-0.18446 1.47373,-0.65561 1.98305,-1.04698 0.50932,-0.39137 1.75948,-1.2609 2.77813,-1.93228 2.24303,-1.47836 6.49962,-5.54532 7.14144,-6.82336 0.2558,-0.50933 0.8554,-1.40822 1.33247,-1.99753 1.60602,-1.98395 4.5407,-7.59947 6.46335,-12.36771 0.73403,-1.82041 1.33517,-3.41085 1.33583,-3.53428 0,-0.12345 0.29551,-0.93882 0.65519,-1.81194 0.35967,-0.87313 0.65857,-1.88516 0.66421,-2.24896 0.006,-0.3638 0.30607,-1.61396 0.66765,-2.77812 0.36157,-1.16417 0.64936,-2.1481 0.63949,-2.18655 -0.01,-0.0384 0.10441,-0.69329 0.2539,-1.45521 0.14949,-0.76192 0.32731,-1.74252 0.39518,-2.17908 0.0679,-0.43656 0.24103,-1.38906 0.38481,-2.11666 0.14377,-0.72761 0.34155,-1.96607 0.43947,-2.75215 0.0979,-0.78607 0.22257,-1.61951 0.27697,-1.85208 0.7249,-3.09917 1.19597,-5.86401 1.31172,-7.6989 0.3542,-5.61549 0.41945,-6.5628 0.53748,-7.805209 0.0691,-0.727604 0.17994,-1.620573 0.24624,-1.984375 0.0663,-0.363802 0.19696,-2.030677 0.29041,-3.704167 0.0934,-1.673489 0.22016,-3.125575 0.28162,-3.226858 0.0615,-0.101282 0.1229,-2.661131 0.13653,-5.688544 0.0316,-7.03281 -0.0619,-6.834015 3.10002,-6.590344 1.25708,0.09688 2.70232,0.221355 3.21164,0.276622 0.50932,0.05527 1.69995,0.179731 2.64583,0.27659 0.94589,0.09686 2.79136,0.394097 4.10104,0.660527 1.30969,0.26643 3.26816,0.567719 4.35214,0.669533 1.08399,0.101812 2.63181,0.35751 3.43958,0.568219 0.8078,0.210709 2.89745,0.749557 4.6437,1.197443 1.74625,0.447884 3.64554,1.051388 4.22061,1.34112 0.57507,0.289732 1.64663,0.735669 2.38125,0.990968 4.14366,1.440072 11.35446,5.436629 14.56481,8.07248 0.7276,0.597402 1.79916,1.36517 2.38125,1.706139 1.09889,0.643704 5.32677,4.769299 6.48229,6.325446 0.3638,0.48993 1.43928,1.79962 2.38998,2.91042 2.38464,2.78625 3.89504,5.1567 5.75437,9.03107 0.87294,1.81901 1.66079,3.48589 1.75077,3.70417 0.09,0.21828 0.39257,0.77362 0.67242,1.23404 0.27984,0.46046 0.71545,1.88921 0.96803,3.175 0.49291,2.50958 0.91633,3.41405 1.71727,3.66827 0.49663,0.15764 0.50549,2.29216 0.50549,121.85094 v 121.69053 h -102.7905 c -82.04139,0 -102.79618,-0.0667 -102.81822,-0.33073 z m 77.32762,-218.90896 c -1.21398,-0.20545 -2.72552,-0.6096 -3.35893,-0.89816 -0.63339,-0.28855 -1.30702,-0.5261 -1.49688,-0.52787 -0.73308,-0.007 -4.38865,-1.78975 -5.77213,-2.81517 -2.86668,-2.12478 -5.42186,-5.33556 -7.40238,-9.30161 -1.18874,-2.38045 -2.47853,-5.60707 -2.24139,-5.60707 0.0566,0 -0.1329,-0.55002 -0.42106,-1.22227 -0.45243,-1.05553 -0.73406,-2.29487 -1.43568,-6.31836 -0.0761,-0.43656 -0.21095,-1.21047 -0.29959,-1.71979 -0.0887,-0.50932 -0.21515,-1.28323 -0.28111,-1.71979 -0.20125,-1.33215 -0.28798,-1.78213 -0.71377,-3.70417 -0.44741,-2.01948 -1.1172,-9.10788 -1.37509,-14.55208 -0.0896,-1.891773 -0.20683,-3.796773 -0.26046,-4.233336 -0.17182,-1.397767 -0.47601,-9.666898 -0.49609,-13.484803 -0.0193,-3.683201 -0.0172,-3.696325 0.64203,-4.034655 0.52978,-0.271862 7.17709,-0.326314 33.3905,-0.273529 21.37865,0.04305 32.82042,0.157662 32.99261,0.330488 0.33695,0.33823 0.35603,1.205804 0.17164,7.805208 -0.18635,6.669802 -0.58473,13.131535 -1.0685,17.330207 -0.20118,1.74625 -0.43621,3.94891 -0.52228,4.89479 -0.25284,2.7785 -0.6635,5.97324 -0.94266,7.33341 -0.14288,0.69604 -0.36864,1.86086 -0.50176,2.58847 -0.13311,0.7276 -0.30757,1.50151 -0.38772,1.71979 -0.0801,0.21828 -0.20394,0.75406 -0.27511,1.19063 -0.78457,4.81226 -1.38576,7.37867 -2.37284,10.12907 -0.93577,2.60757 -2.86255,6.33468 -3.8595,7.46572 -2.14027,2.42818 -3.06337,3.52181 -3.25302,3.85397 -0.59648,1.04471 -6.18533,4.04963 -8.3049,4.46529 -0.26631,0.0522 -0.96042,0.28382 -1.5425,0.5147 -2.8666,1.13689 -13.81686,1.60223 -18.61143,0.79092 z M 55.126547,72.917817 c -2.36591,-0.476893 -4.11888,-1.908752 -5.55625,-4.538453 l -0.92604,-1.694215 -0.0672,-49.468667 c -0.0536,-39.474829 -0.13483,-49.536313 -0.40203,-49.803508 -0.43295,-0.432953 -3.97788,-1.525158 -7.99746,-2.464028 -1.74625,-0.40789 -3.49521,-0.86584 -3.88658,-1.01767 -1.60117,-0.62116 -6.44775,-1.36469 -8.64537,-1.3263 -2.83349,0.0495 -4.20107,-0.31694 -6.16798,-1.65265 -2.81163,-1.90934 -3.64858,-3.45119 -5.36851,-9.89009 -0.38871,-1.45521 -0.98281,-3.5388 -1.32023,-4.63021 -1.30269,-4.21376 -1.94036,-6.52058 -4.09567,-14.81666 -0.43478,-1.67349 -0.9188498,-3.32673 -1.0757198,-3.67387 -0.15687,-0.34714 -0.76041,-2.49027 -1.34119,-4.7625 -1.04548,-4.09031 -1.24009,-4.7784 -2.51534,-8.89384 -0.36074,-1.16417 -1.13144,-3.9026 -1.71267,-6.08542 -1.36119,-5.11197 -1.42031,-5.17724 -4.77613998,-5.272378 -3.39019002,-0.0961 -3.67689002,0.0327 -3.67689002,1.652538 0,0.70842 0.24577,1.99129 0.54616,2.85082 0.30038,0.85953 0.72198,2.57481 0.93688,3.81173 0.21489,1.23693 0.62033,2.96334 0.90097,3.83646 0.45483,1.41508 1.15945002,4.41369 2.26927002,9.65729 0.2002,0.94589 0.48437,2.13651 0.6315,2.64584 0.38787998,1.34272 1.76992998,7.15136 2.36071998,9.92187 0.80123,3.75737 2.02657,8.99095 2.88055,12.30312 0.43147,1.67349 1.10487,4.47146 1.49644,6.21771 0.93215,4.15708 2.4106698,10.33965 3.0687398,12.832293 0.69657,2.638457 0.71438,2.715961 1.18556,5.159375 0.2245,1.164166 0.64146,2.890572 0.92659,3.836458 0.28512,0.945885 0.74743,2.731823 1.02735,3.96875 0.27992,1.236927 0.98877,4.153958 1.57521,6.482291 1.3527,5.3706428 1.55121,6.7885788 1.01291,7.2353258 -0.30495,0.253084 -2.3737,0.32834 -8.6037398,0.312978 -8.16491998,-0.02013 -8.20542998,-0.01749 -8.89773,0.581361 l -0.69547,0.601586 0.0286,18.6531232 c 0.0157,10.259218 0.0326,25.14203 0.0375,33.072915 l 0.009,14.419791 -0.72469,1.809919 c -0.97239,2.428539 -2.34968,4.098012 -4.37726,5.30583 -3.09284,1.842399 -6.2348402,1.872329 -9.5860402,0.09132 -2.35438,-1.251244 -4.38737,-3.803528 -4.80565,-6.033151 -0.18494,-0.985827 -0.32924,-19.994192 -0.37358,-49.212043 -0.0271,-17.8707292 -0.0355,-18.1488142 -0.567,-18.7192692 -0.49866,-0.535252 -0.78643,-0.579056 -3.80406,-0.579056 -2.71361,0 -3.32587,0.07383 -3.62771,0.437446 -0.30205,0.363863 -0.38538,6.116132 -0.49542,34.1973932 l -0.13228,33.759949 -0.85879,1.719791 c -0.95531,1.913078 -1.5402,2.63725 -3.15501,3.906356 -1.5036,1.181703 -2.64458,1.613384 -4.79181,1.812949 -4.35135,0.404415 -8.37238,-2.38388 -9.99653,-6.931869 -0.43231,-1.210567 -0.46925,-3.614507 -0.53154,-34.592087 -0.0628,-31.2243632 -0.0956,-33.3227312 -0.52795,-33.8005182 -0.43712,-0.483008 -0.90868,-0.50941 -9.09834,-0.50941 -9.11903,0 -9.27232,-0.02022 -9.27232,-1.22327 0,-0.781822 1.42294,-6.8327248 2.23225,-9.4923558 0.35424,-1.164166 0.72115,-2.592916 0.81534,-3.175 0.0942,-0.582083 0.50246,-2.248958 0.90726,-3.704166 0.4048,-1.455208 0.82053,-3.241146 0.92385,-3.96875 0.10332,-0.727604 0.66505,-3.168385 1.24828,-5.423958 0.58324,-2.255573 1.47244,-5.876843 1.976,-8.047273 0.50355,-2.17043 0.96653,-4.02873 1.02885,-4.12956 0.0623,-0.10082 0.40615,-1.68096 0.76409,-3.51142 0.35793,-1.83046 0.76605,-3.54404 0.90692,-3.80795 0.14086,-0.26391 0.5114,-1.78953 0.82341,-3.39025 0.54393,-2.79059 1.41303,-6.40845 1.87501,-7.80521 0.12033,-0.3638 0.29798,-1.2521 0.39479,-1.97398 0.0968,-0.72189 0.39067,-1.91251 0.65305,-2.64583 0.26237,-0.73333 0.61804,-2.10722 0.79038,-3.05311 0.17235,-0.94588 0.82947,-3.74385 1.46028,-6.21771 0.63081,-2.47385 1.28626,-5.21229 1.45657,-6.08541 0.1703,-0.87313 0.48516,-2.11855 0.69969,-2.76759 0.21452,-0.64906 0.56715,-2.19687 0.78362,-3.43959 0.21647,-1.24272 0.5632,-2.75972 0.7705,-3.3711 0.49164,-1.44994 0.67082,-2.29342 0.84302,-3.96862 0.13187,-1.28275 0.0989,-1.38613 -0.48554,-1.524368 -0.34485,-0.0816 -1.84523,-0.11602 -3.33418,-0.0766 -3.73568,0.099 -3.49528,-0.21891 -5.25312,6.945758 -0.21422,0.87313 -0.73544,2.59954 -1.15827,3.83646 -0.42283,1.23693 -1.31894,4.36661 -1.99135,6.95484 -0.67242,2.58824 -1.56769,5.75314 -1.9895,7.03312 -0.42182,1.27998 -1.31935,4.40109 -1.99452,6.93579 -2.17998,8.18402 -4.45557,16.5326 -4.68175,17.17625 -0.0767,0.21828 -0.34012,1.16927 -0.58535,2.11331 -0.58748,2.2615 -2.06359,5.0296 -3.27334,6.13836 -2.18647,2.00394 -4.95768,3.00489 -7.45416,2.69241 -1.70684,-0.21364 -2.63781,-0.20474 -5.18616,0.0496 -2.59933,0.25941 -4.91567,-0.53443 -7.14194,-2.44765 -1.53898,-1.32257 -2.94143,-4.36922 -3.93394,-8.54601 -0.25934,-1.09141 -0.56992,-2.10831 -0.69018,-2.25978 -0.18437,-0.23222 -0.45835,-1.2307 -0.90453,-3.29647 -0.22726,-1.05217 -2.17216,-7.9172 -2.661,-9.39271 -0.19285,-0.58208 -0.489657,-1.71317 -0.659577,-2.51354 -0.16992,-0.80036 -0.48409,-1.99099 -0.69816,-2.64583 -0.21407,-0.65485 -0.48779,-1.66688 -0.60828,-2.24896 -0.27041,-1.30642 -1.95735,-7.11993 -2.38005,-8.20208 -0.17052,-0.43657 -0.54832,-1.74625 -0.83954,-2.91042 -0.29122,-1.16417 -0.6299,-2.47385 -0.75262,-2.91042 -1.13884,-4.05136 -1.72295,-6.16604 -2.25154,-8.15129 -1.01016,-3.79395 -1.434,-4.16989 -4.9063,-4.351798 -2.92451,-0.15321 -3.29446,0.12246 -3.08859,2.301508 0.0764,0.80868 0.31439,2.00612 0.52887,2.66096 0.33075,1.00988 0.87524,3.17278 1.38721,5.51048 0.0693,0.31622 0.19006,0.84283 0.26846,1.17025 0.0784,0.32742 0.20253,1.04647 0.27583,1.5979 0.0733,0.55142 0.42462,2.09923 0.7807,3.43958 1.15823,4.35982 3.84694,15.38907 4.62534,18.97345 0.17381,0.80037 0.53142,2.16959 0.79469,3.04271 0.26327,0.87313 0.6816,2.69621 0.92962,4.0513 0.24803,1.35508 0.78362,3.57183 1.19022,4.92611 0.4066,1.35427 0.82491,3.16259 0.92958,4.01849 0.10467,0.8559 0.41397,2.12898 0.68734,2.82907 0.5305,1.35858 0.88,2.76915 1.15529,4.66262 0.0938,0.64515 0.51843,2.51283 0.94361,4.1504 0.42519,1.63756 1.06844,4.383927 1.42946,6.103033 0.361017,1.719104 0.895127,3.959082 1.186907,4.977728 0.29178,1.018646 0.84185,3.518958 1.22237,5.55625 0.38052,2.037291 0.99265,4.656666 1.36028,5.820833 0.36763,1.164166 0.72362,2.4738545 0.79108,2.9104165 0.0675,0.436563 0.20669,1.27 0.30939,1.8520833 0.23027,1.305161 0.1196,1.893824 -0.39304,2.090539 -0.21674,0.08317 -4.13212,0.15793 -8.700837,0.16613 -7.70563,0.01384 -8.35096,0.05069 -8.91742,0.509405 l -0.61066,0.494495 -8e-4,33.1624202 -7.9e-4,33.162424 -0.61324,1.5875 c -1.22764,3.178567 -1.69242,3.81631 -4.01538,5.509874 -1.49083,1.086895 -2.89263,1.501584 -5.0759,1.501584 -2.33811,0 -4.10461,-0.583004 -6.00465,-1.981734 -1.72859,-1.272514 -2.95132,-3.214423 -3.44747,-5.475184 -0.14822,-0.675336 -0.27807,-14.549459 -0.31775,-33.950372 -0.0383,-18.714792 -0.16926,-33.0168542 -0.30489,-33.2937512 -0.40651,-0.829932 -1.80862,-1.210318 -4.46121,-1.210318 -1.36869,0 -2.60586,0.08388 -2.74927,0.186409 -1.04245,0.745287 -1.00867,-0.296214 -1.1244,34.6643252 -0.11018,33.284008 -0.11486,33.529314 -0.66428,34.842917 -0.80797,1.931718 -1.85997,3.376845 -3.01309,4.139023 -2.01292,1.330475 -2.41036,1.511075 -4.02422,1.82858 -5.04758,0.993053 -9.27305,-1.603677 -11.00727,-6.764435 l -0.71043,-2.113585 -0.11958,-32.929045 c -0.10742,-29.57699923 -0.16229,-32.9762202 -0.53899,-33.3924702 -0.38239,-0.42254 -1.16799,-0.464738 -8.90458,-0.478314 -9.6877,-0.01699 -9.56832,0.0083 -9.27979,-1.963983 0.21651,-1.4800183 1.88956,-8.5015288 2.34783,-9.8534598 0.20403,-0.601898 0.55409,-2.14971 0.77792,-3.439583 0.22382,-1.289873 0.63763,-3.001478 0.91958,-3.803565 0.28194,-0.802087 0.82916,-3.123806 1.21604,-5.159375 0.38688,-2.035569 0.94907,-4.594002 1.24931,-5.685405 0.30024,-1.09141 0.81478,-3.175 1.14343,-4.63021 0.32865,-1.45521 0.8938,-3.77693 1.2559,-5.15938 0.36209,-1.38244 1.08921,-4.35901 1.61582,-6.61458 0.52662,-2.25557 1.43734,-6.06557 2.02384,-8.46667 1.39685,-5.71864 2.08676,-8.68113 2.24901,-9.65729 0.0726,-0.43656 0.31512,-1.50812 0.53903,-2.38125 0.2239,-0.87312 0.7032,-2.83765 1.06511,-4.36562 0.36191,-1.52797 0.89715,-3.55203 1.18943,-4.49792 0.29228,-0.94588 0.76086,-2.96995 1.0413,-4.49791 0.69019,-3.76052 0.66637,-3.65266 1.26221,-5.7168 0.28956,-1.0031 0.72768,-2.76079 0.97361,-3.90596 0.59787,-2.78401 0.49251,-2.890528 -2.99781,-3.030718 -2.44029,-0.098 -2.64242,-0.0659 -3.27431,0.519818 -0.6188,0.57359 -1.53298,2.66761 -1.53298,3.5114 0,0.1953 -0.35799,1.51806 -0.79552,2.93946 -0.43753,1.4214 -0.84209,2.84121 -0.89902,3.15513 -0.0569,0.31392 -0.78784,2.94583 -1.62427,5.84869 -0.83642,2.90287 -1.67101,5.81371 -1.85464,6.46856 -0.18363,0.65484 -0.63439,2.14312 -1.0017,3.30729 -0.3673,1.16417 -0.8036,2.89057 -0.96955,3.83646 -0.16596,0.94588 -0.70085,3.02948 -1.18866,4.63021 -0.83281,2.73284 -2.79569,9.94481 -3.6726,13.49375 -0.74537,3.01655 -2.49864,7.5368 -3.33086,8.58757 -1.26407,1.59603 -2.77836,2.6688 -4.54197,3.2177 -2.01687,0.62772 -2.41092,0.62287 -4.63344,-0.057 -1.49248,-0.45653 -2.05366,-0.80065 -3.16767,-1.94241 -2.66493,-2.73132 -3.01628,-6.43849 -1.15506,-12.18714 0.50312,-1.55396 1.69824,-5.889 3.19327,-11.58291 0.41182,-1.56841 0.80126,-2.93763 0.86544,-3.04271 0.0642,-0.10508 0.61245,-2.09605 1.21841,-4.42438 0.60595,-2.32834 1.2624,-4.55824 1.45879,-4.95534 0.19639,-0.3971 0.5605,-1.58772 0.80913,-2.64583 0.24863,-1.05811 0.67977,-2.69774 0.95808,-3.64362 1.0733,-3.64778 1.29381,-4.42764 1.79549,-6.35 0.88764,-3.40124 3.07886,-10.802688 3.48572,-11.77396 0.12191,-0.29104 0.46805,-1.48167 0.76919,-2.64584 0.85002,-3.28606 3.37927,-8.9795 5.11292,-11.50937 1.78136,-2.5995 5.70747,-6.14756 7.8922,-7.13227 0.62922,-0.28359 1.44168,-0.69101 1.80548,-0.90537 0.36381,-0.21436 2.26881,-0.90459 4.23334,-1.53386 l 3.57187,-1.14412 h 20.90209 c 19.40756,0 21.01558,0.0342 22.48958,0.47878 0.87312,0.26332 2.65906,0.7564 3.96875,1.09573 4.36457,1.13082 9.97114,5.23745 12.397157,9.08051 1.87126,2.96427 4.34508,8.61431 5.47126,12.49602 0.31665,1.0914 0.79839,2.579682 1.07054,3.307292 0.27215,0.7276 0.62059,1.918228 0.77429,2.645828 0.15371,0.72761 0.55965,2.21589 0.90208,3.30729 0.75885,2.41864 1.75463,5.9853 1.91646,6.86437 0.0655,0.35566 0.3523,1.33905 0.63739,2.18531 0.28508,0.84627 0.67799,2.22215 0.87312,3.05751 0.19513,0.83537 0.66716,2.53088 1.04894,3.76781 0.94273,3.05431 1.91495,6.4499 2.8195,9.84741 0.86411,3.24567 0.8759,3.2716 1.56906,3.45287 0.9144,0.23912 1.52364,-0.46541 1.71182,-1.97956 0.0956,-0.76936 0.63609,-2.88712 1.20103,-4.70614 2.22716,-7.17101 2.74846,-8.92377 3.1083,-10.45104 0.20571,-0.87312 0.66629,-2.39826 1.02351,-3.3892 0.35722,-0.99094 0.64949,-2.01902 0.64949,-2.28462 0,-0.26561 0.53579,-2.1112 1.19063,-4.10132 0.65484,-1.99011 1.19062,-3.80585 1.19062,-4.03497 0,-0.37256 1.90325,-6.59153 3.18259,-10.39926 1.0601,-3.15522 2.21967,-5.98009 2.92632,-7.1289 0.40783,-0.66301 1.11018,-1.82405 1.56078,-2.58009 0.75242,-1.26244 3.50445,-4.05773 5.42719,-5.51251 1.93232,-1.46204 4.93673,-2.91203 7.0446,-3.39987 0.96412,-0.22314 2.39287,-0.67533 3.175,-1.00487 l 1.42206,-0.59916 20.35334,-0.0846 20.3533302,-0.0846 2.66542,0.70494 c 1.46597,0.38772 3.36702002,0.87517 4.22455002,1.08322 2.77446998,0.67315 6.54207998,2.88664 9.37038998,5.50516 1.7363898,1.60758 3.9829798,4.83943 5.3280198,7.66465 0.90662,1.90434 4.23878,11.693592 4.25927,12.512942 0.006,0.2554 0.191,0.940608 0.41025,1.522698 0.21925,0.58208 0.80388,2.60614 1.29918,4.49791 0.49529,1.89178 1.33074,4.86834 1.85654,6.61459 0.5258,1.74625 1.23106,4.24656 1.56725,5.55625 0.33619,1.30968 1.17619,4.28625 1.86666,6.61458 1.75866,5.93036 2.21343,7.57092 2.91532,10.51679 0.33799,1.41861 0.9092,3.50221 1.26934,4.63021 0.36015,1.128 0.85232,2.73674 1.09371,3.57498 0.31367,1.08923 0.66582,1.69183 1.23429,2.11212 1.1538,0.85305 4.75769,1.88643 9.4946,2.72249 1.38245,0.244 2.69213,0.53843 2.91041,0.65429 1.00979,0.53597 3.54264,0.62251 22.88646,0.782 19.91709,0.16422 20.69753,0.18935 22.35729,0.71996 4.90675,1.56867 7.78179,3.31101 10.230653,6.19999 2.1314,2.51445 3.64254,6.05115 4.0324,9.437487 0.12925,1.122741 0.21741,10.078066 0.19588,19.900722 l -0.0391,17.8593748 -0.79375,1.442495 c -0.66857,1.215019 -1.0441,1.567833 -2.38125,2.237295 -1.977103,0.9898542 -3.236493,1.0044542 -5.095713,0.05907 -1.68011,-0.85431 -2.82864,-2.339059 -3.21961,-4.162154 -0.18227,-0.849964 -0.28363,-6.51246503 -0.28363,-15.8468488 v -14.524304 l -0.60881,-0.707774 c -0.52573,-0.611195 -0.85966,-0.723939 -2.4474,-0.826275 -1.63552,-0.105415 -1.92148,-0.05006 -2.58916,0.501208 l -0.75054,0.61971 0.006,45.501703 c 0.007,51.95542 0.22678,47.304506 -2.36513,50.003708 -1.82097,1.896345 -3.47549,2.621825 -5.95652,2.611837 -1.27608,-0.0051 -1.87481,-0.158917 -2.85477,-0.733213 -2.03774,-1.1942 -3.09745,-2.300592 -3.95028,-4.124333 l -0.80767,-1.727126 -0.0198,-24.830751 -0.0199,-24.83075 -0.59528,-0.482031 c -0.85969,-0.696137 -5.28744,-0.557766 -5.72381,0.178874 -0.20072,0.338823 -0.3292,8.156143 -0.42114,25.622992 l -0.13229,25.135416 -0.58841,1.190625 c -0.91265,1.846686 -2.04063,3.040853 -3.56817,3.777538 -1.54934,0.747194 -3.29511,1.019924 -4.70696,0.735338 z M 218.60414,61.673735 c -0.0536,-0.05 -1.1458,-0.171381 -2.42721,-0.269745 -1.28137,-0.09836 -2.54494,-0.220277 -2.80789,-0.270915 -0.26291,-0.05064 -1.47669,-0.170135 -2.69727,-0.265549 -3.44723,-0.269478 -7.33181,-1.177608 -9.19435,-2.149428 -0.38377,-0.200234 -0.93757,-0.364796 -1.23065,-0.365693 -0.98042,-0.003 -7.23953,-2.634512 -9.04955,-3.804677 -0.55049,-0.355894 -2.09105,-1.223378 -3.42349,-1.927746 -1.33242,-0.704366 -2.88023,-1.699133 -3.43958,-2.210591 -0.55933,-0.511458 -1.79089,-1.504056 -2.73678,-2.205773 -4.76006,-3.531314 -11.06746,-10.476949 -14.17351,-15.607744 -1.92249,-3.175698 -4.13798,-7.450894 -4.47792,-8.640931 -0.1039,-0.363802 -0.46064,-1.137708 -0.79271,-1.719792 -0.33208,-0.582083 -0.79923,-1.832239 -1.03807,-2.778125 -0.23884,-0.945885 -0.73062,-2.493697 -1.09284,-3.439583 -0.36218,-0.945885 -0.88915,-3.208071 -1.17099,-5.027082 -0.28183,-1.8190102 -0.64159,-3.9621352 -0.79941,-4.7625002 -0.6862,-3.479765 -0.50221,-11.430917 0.37349,-16.1395823 0.0677,-0.3638025 0.24672,-1.5544275 0.39793,-2.6458335 0.33655,-2.429232 0.42172,-2.83486 0.80134,-3.817054 0.16463,-0.425889 0.536,-1.676045 0.82529,-2.778125 1.87598,-7.146467 6.86443,-16.4217 11.88183,-22.09222 1.68185,-1.90078 6.19659,-6.35701 7.52999,-7.43238 0.7189,-0.5798 1.58049,-1.30445 1.9146,-1.61033 2.55199,-2.3363 11.61714,-7.45504 15.60103,-8.80931 0.85259,-0.28983 2.3678,-0.8257 3.36716,-1.19084 1.57538,-0.57559 2.64168,-0.85544 5.06217,-1.32856 7.13581,-1.39481 8.89331,-1.6041 13.49375,-1.60693 4.21378,-0.003 8.0768,0.29646 10.18646,0.7886 0.94588,0.22065 2.91041,0.63036 4.36562,0.91045 2.53579,0.48809 3.60947,0.79031 4.7625,1.34057 0.29104,0.1389 1.46256,0.55969 2.60339,0.93509 2.84914,0.93754 5.72207,2.2425 8.90598,4.04536 1.71691,0.97218 4.77671,2.94826 5.02709,3.24661 0.0728,0.0867 1.26338,0.99509 2.64583,2.01866 2.34069,1.73305 8.46667,7.56185 8.46667,8.05594 0,0.12117 0.20836,0.43024 0.46302,0.68684 1.15387,1.16263 3.67935,4.29553 4.5167,5.60309 1.20065,1.87487 4.3828,8.072614 4.78938,9.328141 0.1742,0.537887 0.68077,1.728512 1.12572,2.645833 0.44495,0.917321 1.08908,2.770309 1.43143,4.11775 0.34231,1.347441 0.72921,2.657128 0.85979,2.910417 0.22796,0.442171 0.63973,2.577436 0.98176,5.090731 0.0891,0.654844 0.22278,1.5478125 0.29699,1.9843755 0.27536,1.619615 0.78399,7.9777063 0.7302,9.12812427 -0.0538,1.151922 -0.10649,1.73387803 -0.64624,7.14375003 -0.13793,1.382448 -0.37219,2.929475 -0.5206,3.4378372 -0.1484,0.508362 -0.26982,1.296887 -0.26982,1.752277 0,0.455393 -0.41672,2.100113 -0.92604,3.65494 -0.50932,1.554824 -0.92604,2.952636 -0.92604,3.106245 0,0.464034 -3.22903,7.952335 -3.88594,9.011671 -0.33657,0.542811 -0.61198,1.065726 -0.61198,1.162034 0,0.174016 -1.32813,2.343137 -3.13923,5.127077 -1.69219,2.601132 -4.25145,5.733814 -7.31181,8.950055 -1.80927,1.901438 -6.75256,6.19878 -8.59896,7.475328 -0.50932,0.352134 -0.99343,0.730893 -1.07582,0.84169 -0.0824,0.110799 -1.33252,0.848672 -2.77813,1.63972 -1.44557,0.791049 -2.77214,1.563601 -2.9479,1.716781 -0.17577,0.153178 -0.45551,0.278508 -0.62164,0.278508 -0.16613,0 -1.27249,0.511956 -2.45856,1.13768 -2.60271,1.373089 -4.14425,1.962854 -5.72836,2.191567 -0.65485,0.09455 -1.55626,0.379577 -2.00314,0.633397 -0.99991,0.56796 -6.24705,1.776568 -8.5802,1.976339 -0.94588,0.08099 -3.20807,0.267439 -5.02708,0.41433 -1.81901,0.146891 -3.62066,0.319513 -4.00365,0.383603 -0.38301,0.06409 -0.7402,0.07562 -0.79375,0.02564 z M 66.371337,-55.162534 c -5.08394,-0.73903 -8.98373,-3.43867 -11.13323,-7.70701 -1.10007,-2.18446 -1.78355,-4.94933 -1.62491,-6.57328 0.13985,-1.43157 1.12635,-4.79401 1.79145,-6.10604 0.76368,-1.50651 4.00423,-4.60292 5.59005,-5.34141 2.44114,-1.13679 4.66806,-1.78186 6.15139,-1.78186 1.71791,0 6.36299,1.50092 7.86371,2.54092 1.3608,0.94304 3.15862,2.90106 3.98685,4.34212 0.70506,1.22675 1.79448,5.38339 1.79448,6.84676 0,1.27245 -0.98166,4.65421 -1.85081,6.376 -0.96467,1.91101 -3.43604,4.61959 -4.8745,5.34239 -0.59394,0.29844 -1.25849,0.6973 -1.47677,0.88634 -0.35473,0.3072 -2.43645,0.92047 -4.23334,1.24713 -0.3638,0.0661 -1.25677,0.0337 -1.98437,-0.0721 z M -140.26823,-131.87454 c -4.39664,-0.79063 -6.47728,-1.79808 -9.94808,-4.81689 -3.22243,-2.80278 -5.41947,-6.37343 -6.29351,-10.22829 -1.56938,-6.92151 0.32717,-13.11139 5.65167,-18.44567 2.96458,-2.97003 5.25941,-4.23632 9.61831,-5.30741 2.83205,-0.69591 3.12354,-0.71976 5.29167,-0.43293 2.49502,0.33008 7.03357,1.69189 7.72548,2.31807 0.23735,0.21479 0.51977,0.39053 0.62762,0.39053 0.42431,0 2.66975,1.72591 4.11807,3.16526 2.92249,2.90439 4.84809,6.66426 5.67988,11.09039 0.37114,1.97488 0.36447,2.28957 -0.12398,5.85269 -0.34181,2.49344 -1.67066,5.79013 -3.10679,7.70748 -2.60689,3.48043 -5.65918,6.04472 -8.93756,7.50863 -1.44121,0.64355 -6.12843,1.74686 -7.20331,1.69557 -0.2495,-0.0119 -1.64427,-0.23575 -3.09947,-0.49743 z m 111.521867,0.0925 c -4.42007,-0.73247 -7.87533,-2.65827 -11.30274,-6.29963 -2.43037,-2.58208 -4.1948,-6.02499 -5.07171,-9.89641 -0.69453,-3.06622 -0.69736,-4.01627 -0.0205,-6.88917 1.32725,-5.63373 5.25686,-11.04379 9.88945,-13.61518 3.95142,-2.1933 8.8087,-3.2553 11.92948,-2.60828 2.73947,0.56797 5.6176,1.61258 7.40834,2.68883 1.87444,1.12655 4.81562,3.96074 6.2570302,6.0294 2.59402,3.72285 3.9195,9.38128 3.2681,13.95136 -0.94134,6.60428 -6.4973202,13.33107 -12.9813202,15.71687 -1.52877,0.56251 -5.53382,1.36207 -6.59798,1.31721 -0.29104,-0.0123 -1.5412,-0.19002 -2.77812,-0.395 z"
       id="path2980" /></g></svg>
