<?xml version="1.0" encoding="UTF-8" standalone="no"?>
<!-- Created with Inkscape (http://www.inkscape.org/) -->

<svg
   width="537.8443mm"
   height="538.62006mm"
   viewBox="0 0 537.8443 538.62006"
   version="1.1"
   id="svg2985"
   xml:space="preserve"
   inkscape:version="1.2.2 (b0a8486541, 2022-12-01)"
   sodipodi:docname="Family-Practice-C.svg"
   inkscape:export-filename="Family-Practice-C.png"
   inkscape:export-xdpi="76.977669"
   inkscape:export-ydpi="76.977669"
   xmlns:inkscape="http://www.inkscape.org/namespaces/inkscape"
   xmlns:sodipodi="http://sodipodi.sourceforge.net/DTD/sodipodi-0.dtd"
   xmlns="http://www.w3.org/2000/svg"
   xmlns:svg="http://www.w3.org/2000/svg"><sodipodi:namedview
     id="namedview2987"
     pagecolor="#ffffff"
     bordercolor="#666666"
     borderopacity="1.0"
     inkscape:showpageshadow="2"
     inkscape:pageopacity="0.0"
     inkscape:pagecheckerboard="0"
     inkscape:deskcolor="#d1d1d1"
     inkscape:document-units="mm"
     showgrid="false"
     inkscape:zoom="0.25"
     inkscape:cx="476"
     inkscape:cy="974"
     inkscape:window-width="1920"
     inkscape:window-height="1027"
     inkscape:window-x="0"
     inkscape:window-y="0"
     inkscape:window-maximized="1"
     inkscape:current-layer="layer1" /><defs
     id="defs2982" /><g
     inkscape:label="Layer 1"
     inkscape:groupmode="layer"
     id="layer1"
     transform="translate(504.38168,24.553933)"><path
       style="fill:#000000;stroke-width:0.264583"
       d="m -172.13423,512.94167 c -0.009,-0.61846 -0.0489,-42.59524 -0.0896,-93.28173 l -0.074,-92.15728 -0.57716,-0.57716 c -0.52364,-0.52361 -0.86514,-0.57986 -3.6807,-0.60616 -3.34359,-0.0312 -4.30122,0.22243 -4.84833,1.28447 -0.1679,0.32591 -0.645,0.86699 -1.06021,1.20237 -0.41519,0.33539 -1.20409,1.3512 -1.75308,2.25735 -0.54898,0.90614 -1.5694,2.47719 -2.26756,3.49123 -2.26097,3.28393 -5.58008,8.52408 -6.8004,10.73631 -0.65484,1.18714 -1.55911,2.58898 -2.00951,3.11521 -0.45037,0.5262 -1.15403,1.55207 -1.56366,2.27967 -0.40962,0.72761 -1.12733,1.73964 -1.59493,2.24896 -0.93414,1.01754 -3.96259,5.59197 -4.82918,7.29443 -0.30144,0.59219 -0.97335,1.58573 -1.49309,2.20784 -0.51978,0.62212 -0.94504,1.28292 -0.94504,1.46841 0,0.29729 -1.66375,2.57977 -2.57598,3.53396 -0.18373,0.1922 -0.6513,0.90657 -1.03902,1.5875 -0.38772,0.68094 -1.14665,1.83338 -1.68654,2.56099 -0.53988,0.7276 -1.27756,1.86272 -1.6393,2.52248 -0.36177,0.65977 -1.30326,2.14805 -2.09225,3.30729 -0.78899,1.15925 -1.59866,2.43314 -1.79927,2.83086 -0.20063,0.39772 -0.56949,0.94287 -0.81968,1.21142 -0.25019,0.26853 -0.78706,1.01468 -1.19306,1.65809 -0.86638,1.37303 -5.70759,6.25996 -7.64045,7.7126 -0.73843,0.55497 -1.99742,1.25326 -2.79778,1.55176 -0.80037,0.2985 -1.69334,0.75737 -1.98438,1.0197 -0.8215,0.74044 -1.53837,1.04064 -3.48827,1.46064 -0.99187,0.21365 -2.37325,0.68191 -3.06977,1.04052 -0.69652,0.35864 -1.88714,0.71901 -2.64583,0.80079 -0.7587,0.0818 -1.97477,0.23199 -2.70238,0.33375 -0.7276,0.10175 -23.23041,0.20992 -50.00625,0.24034 -53.00041,0.0602 -52.63806,0.0691 -55.06176,-1.35125 -0.65328,-0.38285 -1.84643,-0.92271 -2.65144,-1.19967 -3.41442,-1.17473 -9.90513,-7.18082 -11.57765,-10.71325 -0.37617,-0.79449 -0.95627,-1.89132 -1.28911,-2.43739 -0.72101,-1.18293 -1.28572,-2.97101 -2.06832,-6.5491 -0.49119,-2.24573 -0.55539,-3.14595 -0.42459,-5.95313 0.0847,-1.81901 0.34385,-4.02166 0.57577,-4.89479 0.23191,-0.87312 0.52093,-1.96572 0.64226,-2.42803 0.12132,-0.46228 0.97924,-2.35045 1.90647,-4.19589 1.18258,-2.35371 1.96285,-3.57518 2.61364,-4.09162 0.51027,-0.40495 1.519,-1.47339 2.24162,-2.37432 0.83052,-1.03547 1.89623,-1.9794 2.89689,-2.56588 0.87067,-0.5103 1.86297,-1.148 2.20512,-1.41713 0.34215,-0.26913 1.24043,-0.69376 1.99618,-0.94361 0.75575,-0.24985 1.79081,-0.71398 2.30014,-1.0314 1.64484,-1.0251 3.24209,-1.44073 6.48229,-1.68682 1.74625,-0.13264 21.45109,-0.25099 43.78854,-0.26305 22.33744,-0.0119 40.82268,-0.0251 41.07829,-0.0293 0.2761,-0.004 0.94541,-0.73231 1.64885,-1.79329 0.65125,-0.98226 1.61162,-2.38125 2.13414,-3.10885 0.52252,-0.72761 1.05837,-1.59306 1.19077,-1.92323 0.13241,-0.3302 0.71486,-1.24214 1.29435,-2.02655 0.57948,-0.78441 1.66585,-2.46277 2.41415,-3.72967 0.74831,-1.26691 1.73897,-2.73622 2.20148,-3.26515 1.02587,-1.17316 2.13733,-2.88118 2.38722,-3.66852 0.10181,-0.32079 0.69045,-1.27172 1.30807,-2.11318 1.44293,-1.96585 3.4539,-5.0828 4.11364,-6.37601 0.28344,-0.5556 0.72194,-1.18081 0.97443,-1.38935 0.62865,-0.51922 3.1355,-4.29228 5.38218,-8.10075 0.4993,-0.84637 1.63039,-2.59453 2.51354,-3.8848 0.88318,-1.29026 2.02248,-3.04233 2.5318,-3.89352 0.50932,-0.85117 1.34276,-2.10066 1.85208,-2.77667 0.95039,-1.26143 1.86796,-2.6855 3.62641,-5.62825 0.5521,-0.92392 1.38504,-2.19739 1.851,-2.82993 0.46595,-0.63256 1.09177,-1.62951 1.3907,-2.21543 0.2989,-0.58592 0.87686,-1.45558 1.28429,-1.93257 1.0828,-1.26759 2.79929,-3.90348 3.22601,-4.95393 0.2037,-0.50141 0.68112,-1.27532 1.06092,-1.71979 0.37981,-0.44447 1.49101,-2.05827 2.46931,-3.58624 0.97832,-1.52797 2.30746,-3.4925 2.95365,-4.36563 0.64619,-0.87312 1.49323,-2.12328 1.88227,-2.77812 0.38907,-0.65484 1.26804,-2.02406 1.95329,-3.04271 0.68524,-1.01864 1.44899,-2.28605 1.69722,-2.81644 0.2482,-0.53038 0.8604,-1.44229 1.36041,-2.02644 0.50001,-0.58412 0.9091,-1.13742 0.9091,-1.22952 0,-0.0921 0.2322,-0.41666 0.51597,-0.72128 0.28379,-0.30459 0.71758,-0.98422 0.96398,-1.51027 0.71207,-1.52021 1.79171,-2.75867 6.72214,-7.71109 3.84162,-3.85874 5.19348,-5.02608 7.9375,-6.85406 1.81901,-1.21176 3.54541,-2.4086 3.83646,-2.65962 0.57128,-0.49273 0.98017,-0.71831 4.2845,-2.36369 1.19229,-0.5937 2.31296,-1.07946 2.49036,-1.07946 0.17741,0 0.8853,-0.36111 1.57308,-0.80246 0.68779,-0.44135 2.12696,-1.0441 3.19815,-1.33944 1.07122,-0.29535 2.24531,-0.73586 2.60911,-0.97891 1.31009,-0.87524 1.92601,-1.10961 3.66107,-1.39309 0.96959,-0.15841 2.47727,-0.5622 3.35039,-0.89732 0.87313,-0.33511 2.65906,-0.74603 3.96875,-0.91315 1.30969,-0.16712 2.80551,-0.35817 3.32401,-0.42455 0.51853,-0.0664 1.64963,-0.34529 2.51355,-0.61979 1.92203,-0.61069 8.76511,-1.03732 9.58659,-0.59767 0.95493,0.51106 1.1371,1.76163 1.2601,8.65119 0.0652,3.65086 0.29671,7.98908 0.51454,9.64047 0.2178,1.6514 0.396,4.14877 0.396,5.54972 0,1.40094 0.17944,3.90882 0.39876,5.57307 0.21931,1.66423 0.46466,3.56167 0.54522,4.21651 0.0806,0.65484 0.31046,1.78594 0.51089,2.51354 0.20042,0.72761 0.55922,2.84906 0.79732,4.71437 0.2381,1.86529 0.58631,3.94888 0.77382,4.63021 0.49345,1.793 0.85514,3.26298 1.57435,6.39813 0.35052,1.52797 0.95057,3.55203 1.33343,4.49792 0.38287,0.94588 1.25685,3.14854 1.94217,4.89479 1.28968,3.2862 4.9194,9.73187 7.22614,12.83229 2.41154,3.24125 9.02719,8.72479 11.17216,9.26033 0.61058,0.15246 1.89331,0.6884 2.85052,1.191 1.37234,0.72057 2.34556,0.99878 4.60195,1.31551 6.279346,0.88148 6.994386,1.12995 7.517076,2.6122 0.15361,0.43567 0.21677,98.36126 0.0644,99.84795 -0.0182,0.17815 -0.95593,0.82934 -2.08372,1.44712 -3.481356,1.90701 -7.292866,6.17402 -9.525926,10.66442 -0.77922,1.56692 -1.14649,4.22662 -1.16374,8.42733 -0.0161,3.93411 0.39389,6.37259 1.34133,7.97684 4.02516,6.81543 5.09807,8.11183 7.984906,9.64832 0.93179,0.49594 2.22994,1.27659 2.88478,1.73479 1.81679,1.27127 6.26491,2.34678 9.65211,2.33376 2.17411,-0.008 3.12502,-0.1542 5.28579,-0.81068 1.66928,-0.50715 2.9782,-1.08535 3.57188,-1.57787 0.5154,-0.42754 1.59194,-1.15324 2.39231,-1.61264 2.93909,-1.68706 4.04098,-2.72301 5.02708,-4.72619 0.50932,-1.03466 1.37692,-2.3988 1.92802,-3.03139 0.55107,-0.63259 1.07349,-1.451 1.16096,-1.81872 0.0874,-0.36769 0.24315,-0.78761 0.34602,-0.93313 0.85424,-1.20833 1.21055,-7.21614 0.72184,-12.17083 -0.28697,-2.90944 -2.25068,-6.91425 -4.55372,-9.28683 -0.87312,-0.8995 -2.0076,-2.09923 -2.52105,-2.66607 -0.51348,-0.56682 -1.52551,-1.30815 -2.24896,-1.6474 -1.831,-0.85857 -2.7663,-1.56747 -3.04898,-2.31095 -0.35872,-0.94353 -0.37404,-98.98123 -0.0156,-99.90997 0.45537,-1.17996 1.61002,-1.67677 4.73292,-2.03647 4.59224,-0.52893 5.88812,-0.80605 6.90401,-1.4764 0.52808,-0.34849 1.79358,-0.88757 2.81223,-1.19798 1.01865,-0.31044 2.14974,-0.82788 2.51354,-1.14988 0.3638,-0.32203 1.3163,-1.06839 2.11667,-1.6586 2.51576,-1.85523 6.33555,-5.37718 6.78473,-6.25572 0.23715,-0.46382 1.04003,-1.70223 1.78417,-2.75199 3.0204,-4.26095 4.15946,-6.50211 6.82945,-13.43715 0.4482,-1.16417 1.08667,-2.59292 1.4188,-3.175 0.33216,-0.58209 0.68458,-1.65365 0.78317,-2.38125 0.0986,-0.72761 0.51578,-2.75167 0.92702,-4.49792 1.42938,-6.06957 1.87502,-8.30426 2.10987,-10.5804 0.12988,-1.25912 0.35144,-2.66784 0.49231,-3.13049 0.34689,-1.13919 0.77763,-4.53567 0.96237,-7.58807 0.0837,-1.38244 0.26654,-3.52557 0.4064,-4.7625 0.42862,-3.79108 0.75908,-10.71644 0.77237,-16.18683 0.0138,-5.64701 0.0615,-5.84111 1.52659,-6.20884 0.37576,-0.0943 2.65938,0.0295 5.07473,0.27504 2.41536,0.24557 5.10593,0.5155 5.97906,0.59985 0.87312,0.0843 1.76609,0.24441 1.98437,0.35571 0.21828,0.11131 1.43629,0.33919 2.70669,0.50642 2.0416,0.26873 6.68838,1.30536 11.4485203,2.55398 0.87313,0.22903 1.94469,0.63641 2.38125,0.90528 0.43656,0.26888 1.4178,0.73425 2.18054,1.03416 0.76271,0.29991 1.83427,0.82617 2.38124996,1.16947 0.54694,0.3433 2.30415004,1.18437 3.90488004,1.86905 1.60073,0.68467 3.38666,1.62469 3.96875,2.08892 0.58208,0.46423 1.23692,0.98675 1.4552,1.16116 1.2092597,0.96616 2.9921797,2.23975 4.3637197,3.11714 1.7157,1.09749 4.81225,4.1648 6.69044,6.6272 0.66599,0.87313 1.75522,2.18784 2.42054,2.92158 2.91526,3.21509 3.7859,4.49729 4.51065,6.64292 0.53091,1.57176 1.15027,2.71899 2.90695,5.38446 0.61894,0.93916 0.97131,1.93209 1.59144,4.4844 0.53893,2.21816 1.08447,3.39026 1.76728,3.79698 0.29644,0.17655 0.35523,20.37781 0.35523,122.03905 v 121.8275 H -69.328004 -172.11862 Z m 77.935426,-217.95246 c -2.22118,-0.14298 -2.90063,-0.29959 -4.23334,-0.97573 -0.87312,-0.44297 -1.885146,-0.89064 -2.248946,-0.99481 -0.36381,-0.10419 -1.85209,-0.76824 -3.30729,-1.47569 -2.48299,-1.20708 -2.7517,-1.41885 -4.36563,-3.44014 -0.94589,-1.18464 -2.10989,-2.60784 -2.58667,-3.16269 -2.25706,-2.62657 -5.43433,-11.22865 -6.11846,-16.56506 -0.1288,-1.00465 -0.47948,-2.83866 -0.77928,-4.07559 -0.29983,-1.23693 -0.67017,-3.55865 -0.82302,-5.15938 -0.15282,-1.60072 -0.39507,-3.92244 -0.53832,-5.15937 -0.32572,-2.81281 -0.82573,-10.45056 -0.96999,-14.81667 -0.0601,-1.81901 -0.21984,-5.68685 -0.35499,-8.59521 -0.14864,-3.19892 -0.15004,-5.38359 -0.003,-5.53009 0.1332,-0.13319 0.75399,-0.31752 1.37957,-0.40963 0.62558,-0.0921 15.4959,-0.16342 33.045156,-0.15846 27.57339,0.008 31.97095,0.0615 32.37314,0.39525 0.43209,0.35859 0.45199,0.90776 0.27805,7.67291 -0.34943,13.58891 -0.30154,12.72774 -0.91276,16.41482 -0.13266,0.80036 -0.31432,2.64583 -0.4037,4.10104 -0.34406,5.60255 -0.81465,9.84046 -1.20742,10.87355 -0.41593,1.0939 -1.43058,6.08886 -1.84732,9.09376 -0.15068,1.08659 -0.46213,2.26277 -0.6921,2.61374 -0.22995,0.35097 -0.63482,1.39599 -0.89972,2.3223 -0.2649,0.9263 -0.72837,2.03067 -1.02991,2.45417 -0.30158,0.42349 -0.5483,0.84222 -0.5483,0.93048 0,0.66747 -1.43028,2.96326 -2.73375,4.38804 -0.86538,0.94588 -1.9838,2.35524 -2.48542,3.13192 -0.62958,0.97481 -1.21219,1.53361 -1.88132,1.80438 -0.53311,0.21574 -2.05161,0.91972 -3.37442,1.56443 -1.32281,0.64471 -2.55177,1.17218 -2.731,1.17218 -0.17925,0 -0.85616,0.31076 -1.50423,0.69057 -0.98002,0.5743 -1.65593,0.72403 -4.01588,0.88961 -3.40116,0.23862 -10.81309,0.24135 -14.47919,0.005 z M -253.60537,218.35096 c -1.63628,-0.83901 -2.14887,-1.26731 -2.9564,-2.47021 -1.96393,-2.92549 -1.81098,1.5295 -1.81098,-52.74992 v -48.81404 l -0.72761,-0.5059 c -0.84975,-0.59084 -4.27226,-1.73197 -6.54843,-2.18338 -0.87313,-0.17315 -2.27938,-0.59412 -3.125,-0.93548 -0.84563,-0.34136 -2.93912,-0.86257 -4.65221,-1.15824 -2.77301,-0.47861 -3.37353,-0.68546 -5.47396,-1.8855 -2.78772,-1.59271 -5.346,-3.99872 -6.27351,-5.90009 -0.36436,-0.74694 -1.16726,-3.263068 -1.78422,-5.591398 -0.61695,-2.32833 -1.21552,-4.35402 -1.33015,-4.50153 -0.11463,-0.14751 -0.75333,-2.46923 -1.41934,-5.15938 -1.63429,-6.60124 -2.71076,-10.57195 -3.16107,-11.66006 -0.20577,-0.49721 -0.62958,-2.21372 -0.94179,-3.81445 -0.31222,-1.60072 -0.85731,-3.68432 -1.21133,-4.6302 -0.35402,-0.94589 -0.77613,-2.37464 -0.93803,-3.175 -0.1619,-0.80037 -0.65101,-2.58631 -1.08691,-3.96875 -0.43591,-1.38245 -1.08116,-3.78932 -1.43389,-5.34861 -0.35274,-1.55929 -0.77518,-3.12882 -0.93877,-3.48785 -0.45352,-0.99538 -1.41634,-1.245454 -4.47159,-1.161412 -2.69962,0.07426 -2.77046,0.0921 -3.1,0.780912 -0.27051,0.56544 -0.34962,16.3763 -0.39982,79.904168 l -0.0626,79.19924 -1.01902,1.71979 c -1.78348,3.00994 -2.6392,3.85539 -5.28027,5.21687 l -2.43196,1.25369 -2.77812,-0.0144 -2.77813,-0.0144 -2.57968,-1.41254 c -1.41883,-0.77689 -2.57969,-1.49338 -2.57969,-1.5922 0,-0.0988 -0.29782,-0.52561 -0.66182,-0.94843 -0.98716,-1.14667 -1.39738,-2.16797 -2.02609,-5.04435 -0.56702,-2.59413 -0.56944,-2.76008 -0.6671,-45.73066 -0.0539,-23.71989 -0.095,-43.39309 -0.0913,-43.71822 0.004,-0.32512 -0.32264,-0.95976 -0.72521,-1.41031 -0.68587,-0.76763 -0.87574,-0.82796 -3.01785,-0.95893 -2.66056,-0.16268 -3.94626,0.16277 -4.46386,1.12991 -0.29673,0.55444 -0.36145,8.27011 -0.37778,45.03831 -0.0179,40.39989 -0.0586,44.48759 -0.45419,45.69216 -0.23897,0.7276 -0.57946,1.88966 -0.75665,2.58234 -0.44555,1.7418 -1.92079,3.31643 -4.68867,5.00456 l -2.31011,1.40893 -2.91041,-0.009 -2.91042,-0.009 -2.51731,-1.22518 c -1.84962,-0.90022 -2.75209,-1.51734 -3.40249,-2.32668 -1.16145,-1.44527 -2.61731,-5.09653 -2.92737,-7.34181 -0.14831,-1.07391 -0.2449,-32.53223 -0.24183,-78.75535 0.005,-75.742168 -0.003,-76.978118 -0.50773,-77.655208 -0.48087,-0.64512 -0.66922,-0.69273 -3.01972,-0.763223 -2.37112,-0.07111 -2.54271,-0.03933 -3.16907,0.587033 -0.36422,0.36422 -0.80547,1.17195 -0.98056,1.79497 -0.17508,0.62302 -0.53928,1.90667 -0.80932,2.85256 -0.27004,0.94588 -0.70441,2.61276 -0.96528,3.70416 -0.26087,1.09141 -0.763,2.75828 -1.11586,3.70417 -0.35286,0.94588 -0.79397,2.67229 -0.98024,3.83646 -0.18628,1.16416 -0.60075,2.71198 -0.92105,3.43958 -0.32029,0.7276 -0.62691,1.50151 -0.68137,1.71979 -0.0545,0.21828 -0.34903,1.28985 -0.65461,2.38125 -0.30558,1.09141 -0.64844,2.34437 -0.76191,2.78435 -0.11347,0.43999 -0.33038,1.0353 -0.48202,1.32292 -0.15164,0.28762 -0.54053,1.5945 -0.8642,2.90419 -0.32367,1.30969 -0.86347,3.23023 -1.19954,4.26786 -0.33607,1.03764 -0.67944,2.317 -0.76303,2.84302 -0.24785,1.55951 -1.20323,4.93386 -1.6313,5.76166 -0.21872,0.42294 -0.6232,1.99657 -0.89886,3.49695 -0.27566,1.50038 -0.7382,3.25307 -1.02788,3.894858 -0.28967,0.64179 -0.78636,1.84875 -1.10374,2.68212 -0.67684,1.77722 -2.63594,3.93793 -4.62162,5.09724 -1.19082,0.69523 -1.5607,0.77331 -3.70417,0.78184 -2.28019,0.009 -2.45695,-0.0334 -4.16488,-1.00191 -0.981,-0.55627 -2.02022,-1.31217 -2.30938,-1.67977 -1.01606,-1.29172 -2.10116,-4.01727 -2.52308,-6.33751 -0.23443,-1.289118 -0.70341,-3.236818 -1.04218,-4.328228 -0.72385,-2.33194 -0.91599,-3.24143 -1.48132,-7.01145 -0.51226,-3.41605 -0.56731,-3.70309 -0.76116,-3.96875 -0.28207,-0.38657 -0.75913,-2.20204 -0.93858,-3.57188 -0.29732,-2.26948 -0.99409,-5.69935 -1.6125,-7.9375 -0.34177,-1.23692 -0.75876,-3.49911 -0.92666,-5.02708 -0.1679,-1.52797 -0.59304,-3.61145 -0.94477,-4.62995 -0.35173,-1.0185 -0.93462,-3.62369 -1.29532,-5.78931 -0.73298,-4.40074 -1.17104,-5.91624 -2.13505,-7.38629 -0.65617,-1.00062 -0.66496,-1.00419 -2.27338,-0.92604 -2.86908,0.13942 -2.61245,-2.510157 -2.59662,26.80869 0.0576,106.754218 0.0331,131.091528 -0.13289,132.019768 -0.22507,1.25844 -1.7074,4.05168 -2.9833,5.62159 -0.60484,0.74422 -1.63981,1.50174 -3.06483,2.24322 l -2.1516,1.11953 -3.175,0.006 -3.175,0.006 -2.17045,-1.12122 c -1.6877,-0.87184 -2.46531,-1.47552 -3.49612,-2.71417 -0.7322,-0.87982 -1.43143,-2.03615 -1.5619,-2.58295 -1.17245,-4.9135 -1.10213,-1.93989 -1.14347,-48.35041 -0.0214,-24.01094 -0.14122,-43.9331 -0.26628,-44.27149 -0.53743,-1.45418 -1.56479,-1.85492 -4.70475,-1.83518 -2.30751,0.0145 -2.95069,0.30624 -3.40979,1.54662 -0.13557,0.36627 -0.23692,19.52892 -0.23735,44.87801 -5.2e-4,30.52278 -0.0877,44.46835 -0.28124,44.97917 -0.15428,0.4072 -0.52405,1.57381 -0.82171,2.59245 -0.72083,2.46683 -2.50746,4.43703 -5.32256,5.86945 -1.97228,1.00356 -2.00373,1.00972 -5.15938,1.00972 h -3.175 l -1.85208,-1.03194 c -3.22465,-1.79671 -5.04434,-4.02469 -5.96967,-7.30911 -0.2645,-0.93881 -0.34239,-17.39994 -0.37621,-79.50061 -0.0443,-81.375624 -0.0155,-79.152598 -1.03592,-79.833968 -0.41738,-0.27869 -2.38809,-0.24717 -3.17164,0.0507 -0.60992,0.23189 -1.66589,1.7316 -1.54125,2.18893 0.029,0.10625 -0.1729,0.82063 -0.44857,1.5875 -0.6558,1.82436 -0.73171,2.20976 -1.08233,5.49535 -0.16305,1.52797 -0.57923,3.84969 -0.92483,5.15938 -0.3456,1.30968 -0.81223,3.69093 -1.03695,5.29166 -0.48573,3.46001 -0.72581,4.547 -1.43175,6.48229 -0.29195,0.80037 -0.67463,2.88396 -0.85039,4.63021 -0.17577,1.74625 -0.59924,4.31701 -0.94105,5.7128 -0.34181,1.3958 -0.86583,4.06098 -1.16449,5.92264 -0.29865,1.86166 -0.59152,3.46333 -0.65082,3.55927 -0.17596,0.28471 -1.66564,6.932668 -1.83337,8.181688 -0.14666,1.09218 -1.19358,3.19936 -2.2101,4.44835 -0.25634,0.31496 -1.15337,0.94004 -1.9934,1.38906 -1.33253,0.71228 -1.79111,0.8164 -3.59576,0.8164 -1.77439,0 -2.29699,-0.1142 -3.67609,-0.80335 -1.88011,-0.9395 -3.34762,-2.44972 -3.76474,-3.87428 -0.46587,-1.59108 -0.63876,-4.91429 -0.30843,-5.928468 0.16182,-0.4968 0.36294,-1.49859 0.44695,-2.22619 0.26953,-2.33443 0.61006,-4.15728 1.40867,-7.54063 0.42936,-1.81901 0.86347,-4.20026 0.96468,-5.29166 0.10122,-1.09141 0.35726,-2.46063 0.56899,-3.04271 0.77378,-2.12726 0.91082,-2.70863 1.43444,-6.08542 0.29335,-1.89177 0.75726,-4.33255 1.03091,-5.42395 0.27366,-1.09141 0.56631,-2.4011 0.65035,-2.91042 0.15996,-0.9694 0.92668,-6.00169 1.08873,-7.14571 0.0517,-0.36488 0.33966,-1.43644 0.63995,-2.38125 0.3003,-0.94481 0.78293,-3.26564 1.07252,-5.15741 0.47957,-3.13278 1.16797,-6.644081 2.28238,-11.641671 0.22715,-1.018646 0.63487,-2.268802 0.90605,-2.778125 0.27118,-0.509323 0.72346,-1.603473 1.00507,-2.431444 0.28161,-0.827971 0.79748,-1.899534 1.14638,-2.38125 0.3489,-0.481716 0.80078,-1.209826 1.00418,-1.618025 0.35453,-0.711507 3.91398,-4.356332 5.29188,-5.418812 1.65073,-1.272857 4.92271,-2.864609 8.20209,-3.990154 l 3.57187,-1.225939 h 25.66459 25.66458 l 2.47125,0.859896 c 1.35919,0.472942 2.72131,0.859895 3.02693,0.859895 0.89226,0 5.46885,2.382174 7.25875,3.778269 1.61257,1.257789 4.66785,4.578971 5.81484,6.320922 1.36525,2.07342 3.3163,6.846797 3.65852,8.950809 0.10651,0.654843 0.42456,1.904999 0.70678,2.778124 0.55207,1.707973 1.07199,4.370203 1.53597,7.864925 0.15987,1.20408 0.5714,3.2608 0.91453,4.57049 0.34313,1.30969 0.82368,3.75047 1.06788,5.42396 0.54125,3.70905 0.72995,4.2346 1.51856,4.22928 0.93896,-0.006 1.21188,-0.3095 1.52122,-1.68981 0.15821,-0.70598 0.41116,-1.51437 0.56211,-1.79642 0.28679,-0.53588 0.38627,-0.89504 0.79206,-2.85972 0.13526,-0.65484 0.49573,-2.02406 0.80105,-3.04271 1.0492,-3.50049 1.25534,-4.2389 1.80963,-6.48229 0.30561,-1.23692 0.72445,-2.784736 0.93074,-3.43958 0.20628,-0.654843 0.56822,-1.964531 0.80429,-2.910416 0.68789,-2.756159 2.69965,-7.600341 4.28532,-10.31875 2.2969,-3.937724 2.60116,-4.360552 3.92478,-5.454295 0.68422,-0.565399 1.7294,-1.4796 2.32261,-2.031563 0.59321,-0.551961 1.59991,-1.234186 2.23712,-1.516055 0.63722,-0.281868 1.51143,-0.809397 1.9427,-1.172286 0.43127,-0.36289 1.28473,-0.784437 1.89657,-0.936774 0.61185,-0.152336 1.61091,-0.507439 2.22015,-0.789117 2.94165,-1.360066 2.29843,-1.332531 31.10936,-1.331645 15.632,5.29e-4 27.38323,0.104627 28.14689,0.249452 0.72105,0.136745 1.8407,0.445344 2.48811,0.685776 0.64741,0.240432 1.9412,0.66272 2.8751,0.938416 0.9339,0.275693 1.94593,0.728261 2.24896,1.0057 0.30303,0.277439 1.20581,0.828516 2.00617,1.224613 0.80036,0.396097 1.88405,1.153372 2.40819,1.682832 0.52414,0.529461 1.51491,1.438905 2.20171,2.020988 0.6868,0.582084 1.7162,1.852546 2.28756,2.823252 0.57135,0.970704 1.32922,2.110023 1.68414,2.531819 0.35491,0.421796 1.00739,1.811923 1.44995,3.089167 0.44256,1.277244 1.03511,2.697768 1.31679,3.15672 0.28167,0.458951 0.75849,1.87694 1.05959,3.151086 0.3011,1.274146 0.77233,2.762427 1.04718,3.307292 0.27485,0.544864 0.64188,1.824101 0.81562,2.842748 0.44388,2.60249 3.00964,11.23864 3.74986,12.62175 0.14531,0.27152 0.49574,1.70881 0.77874,3.19398 0.283,1.48517 0.74021,3.41577 1.01602,4.29021 0.27582,0.87444 0.81829,2.78052 1.20549,4.23572 0.3872,1.45521 0.81097,2.88396 0.94171,3.175 0.13074,0.29105 0.61026,1.89839 1.06561,3.57188 0.45535,1.67349 0.99977,3.58867 1.20981,4.25597 0.21005,0.6673 0.43071,1.4412 0.49036,1.71979 0.36864,1.72175 2.11928,7.30601 2.58934,8.25963 0.99524,2.01902 1.55276,2.43218 3.29522,2.44201 0.84369,0.005 2.36742,0.13581 3.38607,0.2912 1.15691,0.1765 9.71448,0.31353 22.79925,0.36509 14.28731,0.0563 21.40688,0.17798 22.39311,0.38272 0.79529,0.1651 2.64308,0.69321 4.10623,1.17358 2.13532,0.701038 3.06297,1.181548 4.7009,2.434928 1.12231,0.85884 2.34985,1.96146 2.72783,2.45025 0.37799,0.48879 1.20211,1.53341 1.83139,2.32138 0.99349,1.24404 1.20881,1.75418 1.63537,3.87461 0.27016,1.34307 0.63722,2.79876 0.81568,3.23487 0.24376,0.59565 0.33785,5.39871 0.3782,19.30539 l 0.0537,18.51246 -0.71604,1.59587 c -0.39383,0.87773 -0.88464,1.73577 -1.09072,1.90677 -0.57817,0.47978 -3.31684,1.44289 -4.13472,1.45407 -1.23582,0.0169 -3.71901,-1.26574 -4.30916,-2.22578 -1.69106,-2.75102 -1.58065,-1.52643 -1.6504,-18.30473 l -0.0635,-15.28036 -0.62463,-0.5057 c -1.3212,-1.06963 -5.41843,-0.41562 -5.73146,0.91488 -0.0729,0.31009 -0.16094,21.16162 -0.19558,46.33672 -0.0704,51.21782 0.11859,46.64032 -2.01263,48.75034 -0.59637,0.59044 -1.65182,1.40558 -2.34543,1.81143 -1.06629,0.62391 -1.56765,0.74018 -3.24548,0.75265 -1.81695,0.0135 -2.13315,-0.069 -3.74772,-0.97776 -1.52336,-0.85742 -1.88854,-1.21751 -2.68322,-2.64583 -0.50593,-0.90933 -1.06232,-2.34752 -1.23639,-3.19596 -0.22731,-1.10782 -0.3438,-8.26107 -0.41328,-25.3782 -0.0865,-21.30276 -0.14126,-23.88005 -0.51544,-24.25424 -0.31885,-0.31884 -0.97766,-0.41868 -2.7627,-0.41868 -3.8627,0 -3.42783,-3.26905 -3.5153,26.42526 l -0.0749,25.43307 -0.61407,0.98763 c -1.33824,2.15232 -4.24076,3.94526 -6.66197,4.11522 -1.27573,0.0896 -1.69935,-0.023 -3.4347,-0.91285 z m 158.792306,-10.93844 c -4.44886,-0.54824 -6.663526,-0.94297 -7.937496,-1.41474 -2.17868,-0.80679 -3.97081,-1.3503 -5.85724,-1.77637 -1.354,-0.30582 -6.01212,-2.53465 -6.88996,-3.29671 -0.21828,-0.1895 -1.81142,-1.03675 -3.54034,-1.88278 -1.72889,-0.84604 -3.4553,-1.87908 -3.83645,-2.29564 -0.38114,-0.41656 -1.46691,-1.34981 -2.41279,-2.07389 -3.09494,-2.36919 -6.75407,-5.8672 -8.61994,-8.24038 -1.00711,-1.28091 -2.46822,-3.12116 -3.24692,-4.08943 -1.81641,-2.2586 -2.79214,-3.80254 -4.47137,-7.07537 -2.41912,-4.71479 -3.99257,-8.19564 -4.3107,-9.53628 -0.17119,-0.7214 -0.59256,-2.23012 -0.93636,-3.35271 -0.58243,-1.90171 -0.93575,-3.7753 -1.71074,-9.07142 -0.17034,-1.16417 -0.34563,-2.30536 -0.3895,-2.53598 -0.0439,-0.23062 -0.1619,-2.01655 -0.26231,-3.96875 -0.13906,-2.70398 -0.0853,-4.08513 0.22559,-5.7984 0.22444,-1.23692 0.48225,-3.14192 0.57287,-4.23333 0.27033,-3.25548 2.09693,-10.77061 3.27978,-13.49375 0.28445,-0.65484 0.6745,-1.60569 0.86683,-2.11299 0.1923,-0.5073 0.75268,-1.69793 1.24528,-2.64583 0.49258,-0.94791 1.13438,-2.1988 1.42619,-2.77975 0.29183,-0.58096 0.83238,-1.53346 1.20121,-2.11667 0.36885,-0.58321 1.03674,-1.73098 1.4842,-2.55061 0.94912,-1.73847 1.78742,-2.89847 3.03028,-4.19326 0.49159,-0.5121 1.52183,-1.705 2.28944,-2.65089 4.1888,-5.161698 10.69808,-10.292128 17.45429,-13.756968 1.89177,-0.97018 3.8563,-2.02472 4.36563,-2.34344 0.50932,-0.31871 1.58088,-0.76392 2.38125,-0.98933 0.80036,-0.22542 1.93146,-0.59184 2.51354,-0.81426 0.58208,-0.22243 1.77271,-0.55859 2.64583,-0.74703 0.87313,-0.18845 2.49627,-0.59027 3.60696,-0.89295 1.110716,-0.30267 2.718056,-0.60884 3.571876,-0.68038 1.53127,-0.12829 3.03778,-0.32732 4.33054,-0.57212 0.3638,-0.0689 2.2688,-0.17056 4.23333,-0.22593 3.19072,-0.0899 5.18305,0.025 8.59491,0.49572 4.21206,0.58115 5.34395,0.75679 5.69259,0.88336 0.53972,0.19595 0.69252,0.24014 2.51354,0.72689 0.87313,0.23338 2.64086,0.77506 3.9283,1.20372 1.28743,0.42866 2.53759,0.78154 2.77812,0.78418 0.24053,0.003 1.09217,0.37344 1.89254,0.824 2.02525,1.1401 7.05969,3.66758 7.32308,3.67646 0.48551,0.0164 8.54229,6.16222 10.27171,7.83546 1.50032,1.451568 3.561,3.728458 4.63545,5.121788 0.50495,0.65484 1.23205,1.54781 1.61578,1.98437 2.76953,3.15094 3.44106,4.04967 4.1769,5.59013 0.45728,0.95731 1.11085,2.11523 1.4524,2.57314 1.41505,1.89725 4.26088,8.70037 5.20047,12.43206 0.29895,1.18736 0.82198,2.99228 1.16228,4.01092 0.38071,1.13963 0.67935,2.81899 0.77634,4.36563 0.0867,1.38244 0.27615,4.00182 0.42098,5.82083 0.39013,4.89983 0.4385,3.45064 -0.49575,14.8548 -0.17473,2.1329 -0.41201,3.39474 -0.77113,4.10104 -0.2853,0.56111 -0.78763,2.09176 -1.11627,3.40145 -0.32864,1.30969 -0.80603,2.79864 -1.06082,3.30878 -0.25482,0.51014 -0.60251,1.46264 -0.77267,2.11666 -0.17012,0.65403 -0.70313,1.84399 -1.18443,2.64435 -0.4813,0.80037 -1.16954,2.05052 -1.5294,2.77813 -1.83282,3.70578 -3.63812,6.68043 -4.71881,7.7754 -1.19663,1.21242 -3.32521,3.78689 -5.47354,6.62015 -0.61699,0.81369 -1.70453,1.89616 -2.41674,2.40549 -2.26401,1.61904 -5.04332,3.96706 -5.62168,4.74931 -0.35517,0.48043 -1.77874,1.36376 -3.9016,2.421 -1.83829,0.91552 -3.71078,1.93892 -4.16107,2.27422 -0.45029,0.3353 -0.88535,0.60963 -0.96676,0.60963 -0.0814,0 -0.86056,0.40273 -1.73138,0.89495 -1.82486,1.03147 -3.48316,1.6083 -5.77162,2.00762 -0.88855,0.15505 -2.3173,0.55597 -3.175,0.89093 -2.36927,0.92531 -4.82119,1.43968 -9.76151,2.04783 -6.59511,0.81186 -7.35052,0.81067 -14.10801,-0.0221 z M -241.43942,91.090422 c -0.95099,-0.18708 -6.49615,-2.87229 -7.41094,-3.58871 -0.69559,-0.54475 -2.09038,-2.57394 -3.09314,-4.50001 -0.20608,-0.39583 -0.5859,-1.82458 -0.84405,-3.175 -0.40373,-2.11198 -0.42367,-2.6958 -0.14258,-4.17511 0.64082,-3.37249 1.29395,-4.74017 3.82056,-8.00049 1.12816,-1.45576 4.90617,-3.11967 8.52518,-3.75467 2.51693,-0.44163 9.35418,2.15433 10.6784,4.05434 1.6742,2.40223 2.47348,3.88726 2.77026,5.14705 0.17661,0.74973 0.52679,1.89893 0.77817,2.55377 0.53036,1.38165 0.53694,1.30906 -0.43924,4.8396 -0.58287,2.10808 -1.04312,3.13665 -2.09658,4.6854 -1.50074,2.20634 -2.32757,2.87213 -5.79917,4.6697 -2.07562,1.07474 -2.61895,1.24206 -4.23333,1.30362 -1.01864,0.0388 -2.14974,0.0121 -2.51354,-0.0595 z M -448.47587,14.163703 c -2.36919,-0.424616 -2.76311,-0.55721 -5.1654,-1.738677 -2.95935,-1.455431 -4.68679,-2.8509227 -6.56135,-5.3005117 -0.38977,-0.509323 -0.85108,-1.045104 -1.02515,-1.190625 -0.72415,-0.60539 -2.27372,-3.824983 -2.61052,-5.42395802 -0.66466,-3.15554998 -0.71839,-6.21461198 -0.16497,-9.39270798 0.4258,-2.4452203 0.70507,-3.2698863 1.74719,-5.1593743 1.44908,-2.627377 3.91627,-5.277754 6.64196,-7.135131 3.28494,-2.238472 9.7531,-3.912704 12.42991,-3.217383 5.47979,1.423419 8.6118,3.016456 11.15511,5.673834 2.21285,2.312107 3.01046,3.437028 4.25532,6.001596 1.45634,3.0002363 1.87247,5.8597743 1.47114,10.1092983 -0.24515,2.59567098 -0.40776,3.23639598 -1.23968,4.884369 -0.52663,1.043236 -0.95752,1.960266 -0.95752,2.037845 0,0.415417 -2.49942,3.61108 -3.48465,4.455337 -0.63006,0.539903 -1.62181,1.3869877 -2.20389,1.8824117 -1.37575,1.17093 -5.38839,2.989583 -7.40833,3.357684 -2.52627,0.460375 -4.8827,0.51381 -6.87917,0.155993 z m 111.52187,0.184118 c -1.67072,-0.200443 -4.3455,-0.884131 -5.42396,-1.386395 -0.58208,-0.271092 -1.47505,-0.68336 -1.98437,-0.916151 -1.35152,-0.617728 -4.68685,-3.5007577 -6.14751,-5.3138437 -3.25094,-4.035335 -4.6529,-10.16712 -3.52782,-15.429686 0.20836,-0.974612 0.45046,-2.2109203 0.53799,-2.7473513 0.0875,-0.536431 0.57191,-1.575358 1.07637,-2.308726 0.50447,-0.733368 0.91722,-1.443325 0.91722,-1.577682 0,-0.467633 4.64094,-4.969967 6.21771,-6.032007 0.96728,-0.651519 2.77625,-1.467176 4.63021,-2.087744 2.6705,-0.893887 3.33513,-1.016232 5.43323,-1.000158 2.00142,0.01533 2.88426,0.177529 5.42395,0.996491 1.66839,0.537997 3.33475,1.193459 3.70302,1.456581 0.36826,0.263123 1.14702,0.721983 1.73058,1.019691 0.58356,0.297707 1.8995,1.424003 2.92433,2.50288 1.63298,1.719105 2.37014,2.672446 3.73886,4.835368 1.57515,2.489131 2.25403,6.4412273 1.86267,10.8435523 -0.2311,2.59963398 -0.38051,3.16819498 -1.39921,5.324448 -0.62726,1.327719 -1.32305,2.637406 -1.54619,2.910417 -0.22314,0.273013 -0.80407,1.029059 -1.29095,1.680106 -1.63864,2.191168 -4.66962,4.5450947 -7.24443,5.6261787 -2.94763,1.237621 -7.0254,1.916719 -9.6317,1.604031 z"
       id="path4237" /></g></svg>
